<?xml version="1.0" encoding="iso-8859-1"?>
<!-- Uploaded to: SVG Repo, www.svgrepo.com, Generator: SVG Repo Mixer Tools -->
<svg height="800px" width="800px" version="1.1" id="Layer_1" xmlns="http://www.w3.org/2000/svg" xmlns:xlink="http://www.w3.org/1999/xlink" 
	 viewBox="0 0 512 512" xml:space="preserve">
<g transform="translate(1 1)">
	<path style="fill:#FFE100;" d="M485.4,502.467H24.6V33.987c0-14.507,11.947-26.453,26.453-26.453H459.8
		c13.653,0,25.6,11.947,25.6,26.453V502.467z"/>
	<path style="fill:#FFA800;" d="M476.013,7.533h-17.067c14.507,0,26.453,11.947,26.453,26.453v468.48h17.067V33.987
		C502.467,19.48,490.52,7.533,476.013,7.533"/>
	<path style="fill:#FFFFFF;" d="M51.053,7.533H33.987C19.48,7.533,7.533,19.48,7.533,33.987v468.48H24.6V33.987
		C24.6,19.48,36.547,7.533,51.053,7.533"/>
	<path style="fill:#FFE100;" d="M50.2,502.467h409.6V289.133H50.2V502.467z"/>
	<g>
		<path style="fill:#FECC00;" d="M212.333,442.733c0,14.507-11.093,25.6-25.6,25.6c-14.507,0-25.6-11.093-25.6-25.6
			c0-14.507,11.093-25.6,25.6-25.6C201.24,417.133,212.333,428.227,212.333,442.733"/>
		<path style="fill:#FECC00;" d="M348.867,442.733c0,14.507-11.093,25.6-25.6,25.6c-14.507,0-25.6-11.093-25.6-25.6
			c0-14.507,11.093-25.6,25.6-25.6C337.773,417.133,348.867,428.227,348.867,442.733"/>
		<path style="fill:#FECC00;" d="M369.347,383H140.653c-7.68,0-13.653,5.973-13.653,13.653v33.28c0,7.68,5.973,13.653,13.653,13.653
			h20.48c0-14.507,11.093-25.6,25.6-25.6c14.507,0,25.6,11.093,25.6,25.6h85.333c0-14.507,11.093-25.6,25.6-25.6
			c14.507,0,25.6,11.093,25.6,25.6h20.48c7.68,0,13.653-5.973,13.653-13.653v-33.28C383,388.973,377.027,383,369.347,383"/>
	</g>
	<path style="fill:#63D3FD;" d="M348.867,383H161.133l36.693-51.2c3.413-5.12,9.387-8.533,16.213-8.533h81.92
		c5.973,0,11.947,3.413,16.213,8.533L348.867,383z"/>
	<g>
		<path style="fill:#FECC00;" d="M50.2,289.133h409.6v-102.4H50.2V289.133z"/>
		<path style="fill:#FECC00;" d="M41.667,186.733h426.667v-51.2H41.667V186.733z"/>
	</g>
	<path style="fill:#63D3FD;" d="M135.533,101.4h213.333V41.667H135.533V101.4z"/>
	<path style="fill:#3DB9F9;" d="M348.867,101.4h25.6V41.667h-25.6V101.4z"/>
	<path d="M502.467,511H7.533C2.413,511-1,507.587-1,502.467V33.987C-1,14.36,14.36-1,33.987-1h442.88C495.64-1,511,14.36,511,33.987
		v468.48C511,507.587,507.587,511,502.467,511z M16.067,493.933h477.867V33.987c0-10.24-7.68-17.92-17.92-17.92H33.987
		c-10.24,0-17.92,7.68-17.92,17.92V493.933z"/>
	<path d="M468.333,195.267H41.667c-5.12,0-8.533-3.413-8.533-8.533v-51.2c0-5.12,3.413-8.533,8.533-8.533h426.667
		c5.12,0,8.533,3.413,8.533,8.533v51.2C476.867,191.853,473.453,195.267,468.333,195.267z M50.2,178.2h409.6v-34.133H50.2V178.2z"/>
	<path d="M459.8,297.667H50.2c-5.12,0-8.533-3.413-8.533-8.533v-102.4c0-5.12,3.413-8.533,8.533-8.533h409.6
		c5.12,0,8.533,3.413,8.533,8.533v102.4C468.333,294.253,464.92,297.667,459.8,297.667z M58.733,280.6h392.533v-85.333H58.733V280.6
		z"/>
	<path d="M459.8,511H50.2c-5.12,0-8.533-3.413-8.533-8.533V289.133c0-5.12,3.413-8.533,8.533-8.533h409.6
		c5.12,0,8.533,3.413,8.533,8.533v213.333C468.333,507.587,464.92,511,459.8,511z M58.733,493.933h392.533V297.667H58.733V493.933z"
		/>
	<path d="M374.467,109.933H135.533c-5.12,0-8.533-3.413-8.533-8.533V41.667c0-5.12,3.413-8.533,8.533-8.533h238.933
		c5.12,0,8.533,3.413,8.533,8.533V101.4C383,106.52,379.587,109.933,374.467,109.933z M144.067,92.867h221.867V50.2H144.067V92.867z
		"/>
	<path d="M459.8,229.4H50.2c-5.12,0-8.533-3.413-8.533-8.533c0-5.12,3.413-8.533,8.533-8.533h409.6c5.12,0,8.533,3.413,8.533,8.533
		C468.333,225.987,464.92,229.4,459.8,229.4z"/>
	<path d="M459.8,263.533H50.2c-5.12,0-8.533-3.413-8.533-8.533s3.413-8.533,8.533-8.533h409.6c5.12,0,8.533,3.413,8.533,8.533
		S464.92,263.533,459.8,263.533z"/>
	<path d="M348.867,391.533H161.133c-3.413,0-5.973-1.707-7.68-4.267s-0.853-5.973,0.853-8.533l36.693-51.2
		c5.12-7.68,13.653-11.947,23.04-11.947h81.92c9.387,0,17.92,4.267,23.04,11.947l36.693,51.2c1.707,2.56,1.707,5.973,0.853,8.533
		C354.84,389.827,352.28,391.533,348.867,391.533z M177.347,374.467H331.8l-27.307-38.4c-1.707-2.56-5.12-4.267-9.387-4.267h-81.92
		c-3.413,0-6.827,1.707-9.387,4.267L177.347,374.467z"/>
	<path d="M186.733,476.867c-18.773,0-34.133-15.36-34.133-34.133c0-18.773,15.36-34.133,34.133-34.133s34.133,15.36,34.133,34.133
		C220.867,461.507,205.507,476.867,186.733,476.867z M186.733,425.667c-9.387,0-17.067,7.68-17.067,17.067
		s7.68,17.067,17.067,17.067c9.387,0,17.067-7.68,17.067-17.067S196.12,425.667,186.733,425.667z"/>
	<path d="M323.267,476.867c-18.773,0-34.133-15.36-34.133-34.133c0-18.773,15.36-34.133,34.133-34.133s34.133,15.36,34.133,34.133
		C357.4,461.507,342.04,476.867,323.267,476.867z M323.267,425.667c-9.387,0-17.067,7.68-17.067,17.067s7.68,17.067,17.067,17.067
		s17.067-7.68,17.067-17.067S332.653,425.667,323.267,425.667z"/>
	<path d="M369.347,451.267h-20.48c-5.12,0-8.533-3.413-8.533-8.533c0-9.387-7.68-17.067-17.067-17.067s-17.067,7.68-17.067,17.067
		c0,5.12-3.413,8.533-8.533,8.533h-85.333c-5.12,0-8.533-3.413-8.533-8.533c0-9.387-7.68-17.067-17.067-17.067
		c-9.387,0-17.067,7.68-17.067,17.067c0,5.12-3.413,8.533-8.533,8.533h-20.48c-11.947,0-22.187-9.387-22.187-22.187V395.8
		c0-11.947,9.387-22.187,22.187-22.187H370.2c11.947,0,22.187,9.387,22.187,22.187v33.28
		C391.533,441.88,382.147,451.267,369.347,451.267z M356.547,434.2H370.2c2.56,0,5.12-2.56,5.12-5.12V395.8
		c0-2.56-2.56-5.12-5.12-5.12H140.653c-2.56,0-5.12,2.56-5.12,5.12v33.28c0,2.56,2.56,5.12,5.12,5.12h13.653
		c3.413-14.507,17.067-25.6,33.28-25.6s29.013,11.093,33.28,25.6h70.827c3.413-14.507,17.067-25.6,33.28-25.6
		S352.28,419.693,356.547,434.2z"/>
	<path d="M255,391.533c-5.12,0-8.533-3.413-8.533-8.533v-55.467c0-5.12,3.413-8.533,8.533-8.533s8.533,3.413,8.533,8.533V383
		C263.533,388.12,260.12,391.533,255,391.533z"/>
</g>
</svg>